<svg xmlns="http://www.w3.org/2000/svg" width="1600" height="560" viewBox="0 0 1600 560" role="img" aria-label="Hephaestus README hero with Talos forging an explainable decision graph">

  <defs>
    <radialGradient id="emberField" cx="80%" cy="78%" r="70%">
      <stop offset="0%" stop-color="#FF6B1A" stop-opacity="0.32"/>
      <stop offset="45%" stop-color="#7A4A22" stop-opacity="0.15"/>
      <stop offset="100%" stop-color="#0D1117" stop-opacity="0"/>
    </radialGradient>
    <radialGradient id="coolField" cx="22%" cy="24%" r="58%">
      <stop offset="0%" stop-color="#58D7FF" stop-opacity="0.13"/>
      <stop offset="100%" stop-color="#0D1117" stop-opacity="0"/>
    </radialGradient>
    <linearGradient id="bronzeMetal" x1="0%" x2="100%" y1="0%" y2="100%">
      <stop offset="0%" stop-color="#FFD166"/>
      <stop offset="22%" stop-color="#D69245"/>
      <stop offset="58%" stop-color="#B87333"/>
      <stop offset="100%" stop-color="#7A4A22"/>
    </linearGradient>
    <linearGradient id="darkSteel" x1="0%" x2="100%" y1="0%" y2="100%">
      <stop offset="0%" stop-color="#3A424C"/>
      <stop offset="55%" stop-color="#242A31"/>
      <stop offset="100%" stop-color="#101419"/>
    </linearGradient>
    <linearGradient id="anvilTop" x1="0%" x2="100%" y1="0%" y2="0%">
      <stop offset="0%" stop-color="#202832"/>
      <stop offset="45%" stop-color="#59616C"/>
      <stop offset="100%" stop-color="#151A20"/>
    </linearGradient>
    <filter id="softGlow" x="-60%" y="-60%" width="220%" height="220%">
      <feGaussianBlur stdDeviation="6" result="blur"/>
      <feMerge>
        <feMergeNode in="blur"/>
        <feMergeNode in="SourceGraphic"/>
      </feMerge>
    </filter>
    <filter id="hardShadow" x="-30%" y="-30%" width="160%" height="180%">
      <feDropShadow dx="0" dy="18" stdDeviation="18" flood-color="#000000" flood-opacity="0.38"/>
    </filter>
    <pattern id="grid" width="44" height="44" patternUnits="userSpaceOnUse">
      <path d="M 44 0 L 0 0 0 44" fill="none" stroke="#2E3742" stroke-opacity="0.22" stroke-width="1"/>
    </pattern>
    <pattern id="sparks" width="160" height="120" patternUnits="userSpaceOnUse">
      <circle cx="26" cy="24" r="1.6" fill="#FFD166" opacity="0.42"/>
      <circle cx="96" cy="72" r="1.2" fill="#FF6B1A" opacity="0.38"/>
      <circle cx="138" cy="38" r="1.1" fill="#58D7FF" opacity="0.22"/>
    </pattern>
  </defs>


  <rect width="1600" height="560" fill="#0D1117"/>
  <rect width="1600" height="560" fill="url(#grid)" opacity="0.68"/>
  <rect width="1600" height="560" fill="url(#emberField)"/>
  <rect width="1600" height="560" fill="url(#coolField)"/>
  <rect width="1600" height="560" fill="url(#sparks)" opacity="0.75"/>

  <path d="M0 394 C150 352 300 362 470 418 C680 488 880 486 1074 420 C1240 364 1410 346 1600 392 V560 H0 Z" fill="#070A0F" opacity="0.62"/>

  <g transform="translate(100 112)">
    <rect x="0" y="0" width="118" height="32" rx="16" fill="#131A21" stroke="#3A4652" stroke-width="1"/>
    <circle cx="21" cy="16" r="5" fill="#FF6B1A"/>
    <text x="36" y="22" font-family="Segoe UI, Inter, Arial, sans-serif" font-size="14" font-weight="750" letter-spacing="1.6" fill="#95A1AD">ALPHA</text>
    <text x="0" y="104" font-family="Segoe UI, Inter, Arial, sans-serif" font-size="70" font-weight="850" fill="#E8EDF2">Hephaestus</text>
    <text x="1" y="154" font-family="Segoe UI, Inter, Arial, sans-serif" font-size="31" font-weight="700" fill="#FFD166">A forge for agents that think before they act.</text>
    <text x="1" y="207" font-family="Segoe UI, Inter, Arial, sans-serif" font-size="23" font-weight="450" fill="#95A1AD">Repo signals become tasks, tradeoffs, and QUBO formulations.</text>
    <text x="1" y="244" font-family="Segoe UI, Inter, Arial, sans-serif" font-size="23" font-weight="450" fill="#95A1AD">Explanations and learning signals stay reviewable.</text>
  </g>

  <g transform="translate(785 102) scale(1.02)">

  <g transform="scale(1)" filter="url(#hardShadow)">
    <ellipse cx="190" cy="330" rx="150" ry="30" fill="#020407" opacity="0.42"/>

    <g id="anvil">
      <path d="M58 266 H282 L260 292 H88 Z" fill="url(#anvilTop)"/>
      <path d="M74 292 H232 L214 320 H102 Z" fill="url(#darkSteel)"/>
      <path d="M120 320 H198 L216 340 H102 Z" fill="#12171D"/>
      <path d="M40 262 C70 242 95 238 128 251 L58 266 Z" fill="#252D36"/>
      <path d="M282 266 C318 258 338 242 354 220 C350 254 326 279 282 286 Z" fill="#202832"/>
      <path d="M74 267 H270" stroke="#89919B" stroke-opacity="0.36" stroke-width="4" stroke-linecap="round"/>
    </g>

    <g id="forged-decision-graph" transform="translate(28 18) scale(0.82)">

    <g fill="none" stroke="#58D7FF" stroke-width="4" stroke-linecap="round" stroke-linejoin="round" filter="url(#softGlow)">
      <path d="M 64 244 C 110 211 148 211 190 244"/>
      <path d="M 190 244 C 232 216 272 219 312 250"/>
      <path d="M 150 168 L 190 244 L 108 286"/>
      <path d="M 246 170 L 190 244"/>
    </g>
    <g>
      <circle cx="64" cy="244" r="10" fill="#58D7FF"/>
      <circle cx="150" cy="168" r="12" fill="#58D7FF"/>
      <circle cx="190" cy="244" r="14" fill="#FFD166"/>
      <circle cx="246" cy="170" r="10" fill="#58D7FF"/>
      <circle cx="312" cy="250" r="9" fill="#58D7FF"/>
      <circle cx="108" cy="286" r="8" fill="#FF6B1A"/>
      <text x="184" y="250" text-anchor="middle" font-family="Segoe UI, Inter, Arial, sans-serif" font-size="15" font-weight="800" fill="#0D1117">Q</text>
    </g>

    </g>

    <g id="talos">
      <path d="M129 218 H160 V298 H129 Z" fill="url(#bronzeMetal)" stroke="#5D3519" stroke-width="5" stroke-linejoin="round"/>
      <path d="M195 218 H226 V298 H195 Z" fill="url(#bronzeMetal)" stroke="#5D3519" stroke-width="5" stroke-linejoin="round"/>
      <path d="M112 300 H166 L158 322 H98 C98 310 103 303 112 300 Z" fill="url(#darkSteel)" stroke="#0B0F14" stroke-width="5"/>
      <path d="M188 300 H242 C251 303 256 310 256 322 H196 Z" fill="url(#darkSteel)" stroke="#0B0F14" stroke-width="5"/>

      <path d="M112 119 L238 119 L258 218 H92 Z" fill="url(#bronzeMetal)" stroke="#5A3115" stroke-width="6" stroke-linejoin="round"/>
      <path d="M132 138 H218 L230 206 H120 Z" fill="#2A1D16" opacity="0.28"/>
      <circle cx="175" cy="170" r="22" fill="#FF9A3D" filter="url(#softGlow)"/>
      <circle cx="175" cy="170" r="10" fill="#FFD166"/>
      <path d="M145 206 H205" stroke="#5C3519" stroke-width="6" stroke-linecap="round" opacity="0.65"/>

      <path d="M105 75 H245 Q263 75 263 93 V123 Q263 141 245 141 H105 Q87 141 87 123 V93 Q87 75 105 75 Z" fill="url(#bronzeMetal)" stroke="#5A3115" stroke-width="6"/>
      <path d="M101 92 H249 V114 H101 Z" fill="#141A21" opacity="0.72"/>
      <circle cx="141" cy="103" r="9" fill="#58D7FF" filter="url(#softGlow)"/>
      <circle cx="209" cy="103" r="9" fill="#58D7FF" filter="url(#softGlow)"/>
      <path d="M125 69 L116 52 H139 L146 69 Z" fill="url(#darkSteel)" stroke="#0B0F14" stroke-width="5"/>
      <path d="M204 69 L211 52 H234 L225 69 Z" fill="url(#darkSteel)" stroke="#0B0F14" stroke-width="5"/>
      <circle cx="100" cy="132" r="6" fill="#FFD166"/>
      <circle cx="250" cy="132" r="6" fill="#FFD166"/>

      <path d="M93 136 C66 151 52 181 57 215" fill="none" stroke="url(#bronzeMetal)" stroke-width="18" stroke-linecap="round"/>
      <circle cx="58" cy="219" r="16" fill="url(#darkSteel)" stroke="#0B0F14" stroke-width="5"/>
      <path d="M249 136 C279 121 299 95 306 61" fill="none" stroke="url(#bronzeMetal)" stroke-width="18" stroke-linecap="round"/>
      <circle cx="307" cy="58" r="14" fill="url(#darkSteel)" stroke="#0B0F14" stroke-width="5"/>

      <g transform="rotate(-18 318 44)">
        <rect x="314" y="35" width="11" height="88" rx="5" fill="#5D3B21"/>
        <rect x="293" y="22" width="58" height="25" rx="5" fill="url(#darkSteel)" stroke="#0B0F14" stroke-width="5"/>
        <rect x="305" y="47" width="34" height="10" fill="#D69245" opacity="0.75"/>
      </g>
    </g>
  </g>

  </g>

  <g transform="translate(1124 112)">
    <path d="M22 30 C90 0 160 16 216 74 C282 142 330 135 388 98" fill="none" stroke="#58D7FF" stroke-width="3" stroke-linecap="round" opacity="0.78" filter="url(#softGlow)"/>
    <path d="M22 190 C104 142 170 154 246 204 C302 241 362 232 424 196" fill="none" stroke="#B87333" stroke-width="3" stroke-linecap="round" opacity="0.7"/>
    <g font-family="Segoe UI, Inter, Arial, sans-serif" font-size="17" font-weight="700" fill="#E8EDF2">
      <g transform="translate(0 12)">
        <circle cx="22" cy="18" r="11" fill="#58D7FF"/><text x="46" y="24">Inspect</text>
      </g>
      <g transform="translate(118 54)">
        <circle cx="22" cy="18" r="11" fill="#FFD166"/><text x="46" y="24">Optimize</text>
      </g>
      <g transform="translate(234 100)">
        <circle cx="22" cy="18" r="11" fill="#FF6B1A"/><text x="46" y="24">Explain</text>
      </g>
      <g transform="translate(144 188)">
        <circle cx="22" cy="18" r="11" fill="#58D7FF"/><text x="46" y="24">Learn</text>
      </g>
    </g>
  </g>
</svg>
