<svg xmlns="http://www.w3.org/2000/svg" width="512" height="512" viewBox="0 0 512 512" role="img" aria-label="Hephaestus anvil decision graph mark">

  <defs>
    <radialGradient id="emberField" cx="80%" cy="78%" r="70%">
      <stop offset="0%" stop-color="#FF6A00" stop-opacity="0.32"/>
      <stop offset="45%" stop-color="#7B451D" stop-opacity="0.15"/>
      <stop offset="100%" stop-color="#0D1117" stop-opacity="0"/>
    </radialGradient>
    <radialGradient id="coolField" cx="22%" cy="24%" r="58%">
      <stop offset="0%" stop-color="#3DD6FF" stop-opacity="0.13"/>
      <stop offset="100%" stop-color="#0D1117" stop-opacity="0"/>
    </radialGradient>
    <linearGradient id="bronzeMetal" x1="0%" x2="100%" y1="0%" y2="100%">
      <stop offset="0%" stop-color="#FFC14D"/>
      <stop offset="22%" stop-color="#D08A3A"/>
      <stop offset="58%" stop-color="#B87333"/>
      <stop offset="100%" stop-color="#7B451D"/>
    </linearGradient>
    <linearGradient id="darkSteel" x1="0%" x2="100%" y1="0%" y2="100%">
      <stop offset="0%" stop-color="#3D4751"/>
      <stop offset="55%" stop-color="#2B3138"/>
      <stop offset="100%" stop-color="#101419"/>
    </linearGradient>
    <linearGradient id="anvilTop" x1="0%" x2="100%" y1="0%" y2="0%">
      <stop offset="0%" stop-color="#202832"/>
      <stop offset="45%" stop-color="#59616C"/>
      <stop offset="100%" stop-color="#151A20"/>
    </linearGradient>
    <filter id="softGlow" x="-60%" y="-60%" width="220%" height="220%">
      <feGaussianBlur stdDeviation="6" result="blur"/>
      <feMerge>
        <feMergeNode in="blur"/>
        <feMergeNode in="SourceGraphic"/>
      </feMerge>
    </filter>
    <filter id="hardShadow" x="-30%" y="-30%" width="160%" height="180%">
      <feDropShadow dx="0" dy="18" stdDeviation="18" flood-color="#000000" flood-opacity="0.38"/>
    </filter>
    <pattern id="grid" width="44" height="44" patternUnits="userSpaceOnUse">
      <path d="M 44 0 L 0 0 0 44" fill="none" stroke="#2E3742" stroke-opacity="0.22" stroke-width="1"/>
    </pattern>
    <pattern id="sparks" width="160" height="120" patternUnits="userSpaceOnUse">
      <circle cx="26" cy="24" r="1.6" fill="#FFC14D" opacity="0.42"/>
      <circle cx="96" cy="72" r="1.2" fill="#FF6A00" opacity="0.38"/>
      <circle cx="138" cy="38" r="1.1" fill="#3DD6FF" opacity="0.22"/>
    </pattern>
  </defs>

  <g fill="none" stroke="#B87333" stroke-linecap="round" stroke-linejoin="round">
    <path d="M150 172 L205 112 L256 172 L315 122 L366 174" stroke-width="16"/>
    <path d="M205 112 L226 216 L256 172 L286 218 L315 122" stroke-width="10" opacity="0.86"/>
  </g>
  <g fill="url(#bronzeMetal)" stroke="#5A2D11" stroke-width="8">
    <circle cx="150" cy="172" r="20"/>
    <circle cx="205" cy="112" r="20"/>
    <circle cx="256" cy="172" r="20"/>
    <circle cx="315" cy="122" r="20"/>
    <circle cx="366" cy="174" r="20"/>
  </g>
  <g fill="url(#bronzeMetal)" stroke="#5A2D11" stroke-linejoin="round" stroke-width="8">
    <path d="M198 232 L226 284 L256 232 L286 284 L314 232 L326 310 H186 Z"/>
    <path d="M110 310 H402 L378 352 H136 Z"/>
    <path d="M148 352 H334 L306 406 H176 Z"/>
    <path d="M198 406 H286 L312 438 H172 Z"/>
  </g>
</svg>
