<svg xmlns="http://www.w3.org/2000/svg" width="256" height="256" viewBox="0 0 256 256" role="img" aria-label="Talos anvil decision graph icon">

  <defs>
    <radialGradient id="emberField" cx="80%" cy="78%" r="70%">
      <stop offset="0%" stop-color="#FF6B1A" stop-opacity="0.32"/>
      <stop offset="45%" stop-color="#7A4A22" stop-opacity="0.15"/>
      <stop offset="100%" stop-color="#0D1117" stop-opacity="0"/>
    </radialGradient>
    <radialGradient id="coolField" cx="22%" cy="24%" r="58%">
      <stop offset="0%" stop-color="#58D7FF" stop-opacity="0.13"/>
      <stop offset="100%" stop-color="#0D1117" stop-opacity="0"/>
    </radialGradient>
    <linearGradient id="bronzeMetal" x1="0%" x2="100%" y1="0%" y2="100%">
      <stop offset="0%" stop-color="#FFD166"/>
      <stop offset="22%" stop-color="#D69245"/>
      <stop offset="58%" stop-color="#B87333"/>
      <stop offset="100%" stop-color="#7A4A22"/>
    </linearGradient>
    <linearGradient id="darkSteel" x1="0%" x2="100%" y1="0%" y2="100%">
      <stop offset="0%" stop-color="#3A424C"/>
      <stop offset="55%" stop-color="#242A31"/>
      <stop offset="100%" stop-color="#101419"/>
    </linearGradient>
    <linearGradient id="anvilTop" x1="0%" x2="100%" y1="0%" y2="0%">
      <stop offset="0%" stop-color="#202832"/>
      <stop offset="45%" stop-color="#59616C"/>
      <stop offset="100%" stop-color="#151A20"/>
    </linearGradient>
    <filter id="softGlow" x="-60%" y="-60%" width="220%" height="220%">
      <feGaussianBlur stdDeviation="6" result="blur"/>
      <feMerge>
        <feMergeNode in="blur"/>
        <feMergeNode in="SourceGraphic"/>
      </feMerge>
    </filter>
    <filter id="hardShadow" x="-30%" y="-30%" width="160%" height="180%">
      <feDropShadow dx="0" dy="18" stdDeviation="18" flood-color="#000000" flood-opacity="0.38"/>
    </filter>
    <pattern id="grid" width="44" height="44" patternUnits="userSpaceOnUse">
      <path d="M 44 0 L 0 0 0 44" fill="none" stroke="#2E3742" stroke-opacity="0.22" stroke-width="1"/>
    </pattern>
    <pattern id="sparks" width="160" height="120" patternUnits="userSpaceOnUse">
      <circle cx="26" cy="24" r="1.6" fill="#FFD166" opacity="0.42"/>
      <circle cx="96" cy="72" r="1.2" fill="#FF6B1A" opacity="0.38"/>
      <circle cx="138" cy="38" r="1.1" fill="#58D7FF" opacity="0.22"/>
    </pattern>
  </defs>

  <rect width="256" height="256" rx="54" fill="#0D1117"/>
  <rect width="256" height="256" rx="54" fill="url(#emberField)" opacity="0.85"/>
  <path d="M48 152 H192 L178 176 H66 Z" fill="url(#anvilTop)"/>
  <path d="M70 176 H156 L142 204 H86 Z" fill="url(#darkSteel)"/>
  <path d="M36 150 C56 134 80 130 108 142 L48 152 Z" fill="#252D36"/>
  <path d="M192 152 C216 146 229 134 238 116 C237 146 218 166 192 172 Z" fill="#202832"/>
  <g fill="none" stroke="#58D7FF" stroke-width="7" stroke-linecap="round" filter="url(#softGlow)">
    <path d="M82 119 L116 82 L158 116 L190 76"/>
    <path d="M116 82 L132 148 L158 116"/>
  </g>
  <circle cx="82" cy="119" r="10" fill="#58D7FF"/>
  <circle cx="116" cy="82" r="12" fill="#FFD166"/>
  <circle cx="158" cy="116" r="10" fill="#58D7FF"/>
  <circle cx="190" cy="76" r="9" fill="#FF6B1A"/>
  <path d="M69 207 H151 L166 224 H54 Z" fill="#080B0F"/>
</svg>
